<?xml version="1.0" encoding="UTF-8"?>
<!DOCTYPE svg PUBLIC "-//W3C//DTD SVG 1.1//EN" "http://www.w3.org/Graphics/SVG/1.1/DTD/svg11.dtd">
<svg xmlns="http://www.w3.org/2000/svg" version="1.1" width="256px" height="256px" style="shape-rendering:geometricPrecision; text-rendering:geometricPrecision; image-rendering:optimizeQuality; fill-rule:evenodd; clip-rule:evenodd" xmlns:xlink="http://www.w3.org/1999/xlink">
<g><path style="opacity:1" fill="#7a5aeb" d="M -0.5,-0.5 C 84.8333,-0.5 170.167,-0.5 255.5,-0.5C 255.5,13.8333 255.5,28.1667 255.5,42.5C 228.833,42.5 202.167,42.5 175.5,42.5C 175.649,41.448 175.483,40.448 175,39.5C 174.385,41.1161 173.385,42.4495 172,43.5C 171.493,42.0039 171.993,40.8373 173.5,40C 172.167,39.3333 170.833,39.3333 169.5,40C 170.605,42.1203 170.605,44.2869 169.5,46.5C 168.833,45.8333 168.167,45.1667 167.5,44.5C 167.672,43.5084 167.338,42.8417 166.5,42.5C 164.88,37.1766 161.214,34.5099 155.5,34.5C 154.791,33.596 153.791,33.2627 152.5,33.5C 153.064,28.276 150.897,24.9427 146,23.5C 144.289,23.4393 142.956,24.1059 142,25.5C 141.503,28.146 141.336,30.8127 141.5,33.5C 137.833,33.5 134.167,33.5 130.5,33.5C 131.034,28.5572 129.034,25.2239 124.5,23.5C 119.977,25.2216 118.311,28.5549 119.5,33.5C 115.833,33.5 112.167,33.5 108.5,33.5C 109.494,28.4788 107.66,25.1454 103,23.5C 101.527,23.9031 100.194,24.5697 99,25.5C 98.5026,28.146 98.3359,30.8127 98.5,33.5C 94.8333,33.5 91.1667,33.5 87.5,33.5C 88.0339,28.5572 86.0339,25.2239 81.5,23.5C 76.9773,25.2216 75.3106,28.5549 76.5,33.5C 69.4653,33.0075 64.7986,36.0075 62.5,42.5C 61.8333,42.5 61.5,42.8333 61.5,43.5C 61.1667,43.5 60.8333,43.5 60.5,43.5C 60.2792,40.9028 59.7792,40.9028 59,43.5C 58.6667,43.1667 58.3333,42.8333 58,42.5C 57.8508,45.2785 57.0174,45.7785 55.5,44C 55.8333,43.6667 56.1667,43.3333 56.5,43C 37.5029,42.5001 18.5029,42.3334 -0.5,42.5C -0.5,28.1667 -0.5,13.8333 -0.5,-0.5 Z"/></g>
<g><path style="opacity:1" fill="#1f58a0" d="M 155.5,34.5 C 153.167,34.5 150.833,34.5 148.5,34.5C 148.663,36.8568 148.497,39.1902 148,41.5C 145.67,43.0317 143.67,42.6983 142,40.5C 141.505,38.5273 141.338,36.5273 141.5,34.5C 137.167,34.5 132.833,34.5 128.5,34.5C 128.842,33.6618 129.508,33.3284 130.5,33.5C 134.167,33.5 137.833,33.5 141.5,33.5C 141.336,30.8127 141.503,28.146 142,25.5C 142.956,24.1059 144.289,23.4393 146,23.5C 150.897,24.9427 153.064,28.276 152.5,33.5C 153.791,33.2627 154.791,33.596 155.5,34.5 Z"/></g>
<g><path style="opacity:1" fill="#064f9c" d="M 87.5,33.5 C 86.209,33.2627 85.209,33.596 84.5,34.5C 83.612,37.0545 83.2786,39.7212 83.5,42.5C 81.5328,42.7394 79.6995,42.4061 78,41.5C 77.7276,38.7462 77.2276,36.0795 76.5,33.5C 75.3106,28.5549 76.9773,25.2216 81.5,23.5C 86.0339,25.2239 88.0339,28.5572 87.5,33.5 Z"/></g>
<g><path style="opacity:1" fill="#17569e" d="M 108.5,33.5 C 107.504,33.4142 106.671,33.7476 106,34.5C 105.667,36.8333 105.333,39.1667 105,41.5C 103,42.8333 101,42.8333 99,41.5C 98.5034,39.1902 98.3367,36.8568 98.5,34.5C 93.8333,34.5 89.1667,34.5 84.5,34.5C 85.209,33.596 86.209,33.2627 87.5,33.5C 91.1667,33.5 94.8333,33.5 98.5,33.5C 98.3359,30.8127 98.5026,28.146 99,25.5C 100.194,24.5697 101.527,23.9031 103,23.5C 107.66,25.1454 109.494,28.4788 108.5,33.5 Z"/></g>
<g><path style="opacity:1" fill="#11539d" d="M 130.5,33.5 C 129.508,33.3284 128.842,33.6618 128.5,34.5C 127.686,36.631 127.186,38.9644 127,41.5C 125,44.1667 123,44.1667 121,41.5C 120.728,38.7462 120.228,36.0795 119.5,33.5C 118.311,28.5549 119.977,25.2216 124.5,23.5C 129.034,25.2239 131.034,28.5572 130.5,33.5 Z"/></g>
<g><path style="opacity:1" fill="#c4e5c9" d="M 76.5,33.5 C 77.2276,36.0795 77.7276,38.7462 78,41.5C 79.6995,42.4061 81.5328,42.7394 83.5,42.5C 83.2786,39.7212 83.612,37.0545 84.5,34.5C 89.1667,34.5 93.8333,34.5 98.5,34.5C 98.3367,36.8568 98.5034,39.1902 99,41.5C 101,42.8333 103,42.8333 105,41.5C 105.333,39.1667 105.667,36.8333 106,34.5C 106.671,33.7476 107.504,33.4142 108.5,33.5C 112.167,33.5 115.833,33.5 119.5,33.5C 120.228,36.0795 120.728,38.7462 121,41.5C 123,44.1667 125,44.1667 127,41.5C 127.186,38.9644 127.686,36.631 128.5,34.5C 132.833,34.5 137.167,34.5 141.5,34.5C 141.338,36.5273 141.505,38.5273 142,40.5C 143.67,42.6983 145.67,43.0317 148,41.5C 148.497,39.1902 148.663,36.8568 148.5,34.5C 150.833,34.5 153.167,34.5 155.5,34.5C 161.214,34.5099 164.88,37.1766 166.5,42.5C 166.5,50.1667 166.5,57.8333 166.5,65.5C 131.833,65.5 97.1667,65.5 62.5,65.5C 62.5,57.8333 62.5,50.1667 62.5,42.5C 64.7986,36.0075 69.4653,33.0075 76.5,33.5 Z"/></g>
<g><path style="opacity:1" fill="#855be9" d="M 255.5,42.5 C 255.5,49.1667 255.5,55.8333 255.5,62.5C 228.44,63.1527 201.607,62.486 175,60.5C 174.167,61.5 173.333,62.5 172.5,63.5C 171.502,72.8096 171.168,82.1429 171.5,91.5C 171.167,91.5 170.833,91.5 170.5,91.5C 170.801,76.4518 170.468,61.4518 169.5,46.5C 170.605,44.2869 170.605,42.1203 169.5,40C 170.833,39.3333 172.167,39.3333 173.5,40C 171.993,40.8373 171.493,42.0039 172,43.5C 173.385,42.4495 174.385,41.1161 175,39.5C 175.483,40.448 175.649,41.448 175.5,42.5C 202.167,42.5 228.833,42.5 255.5,42.5 Z"/></g>
<g><path style="opacity:1" fill="#014e9c" d="M 167.5,44.5 C 168.167,45.1667 168.833,45.8333 169.5,46.5C 170.468,61.4518 170.801,76.4518 170.5,91.5C 169.85,91.1961 169.183,90.8627 168.5,90.5C 167.501,75.1811 167.167,59.8478 167.5,44.5 Z"/></g>
<g><path style="opacity:1" fill="#4b84b1" d="M 83.5,53.5 C 104.177,53.167 124.844,53.5003 145.5,54.5C 135.167,54.8333 124.833,55.1667 114.5,55.5C 103.811,55.4987 93.4777,54.832 83.5,53.5 Z"/></g>
<g><path style="opacity:1" fill="#7fa8c6" d="M 144.5,58.5 C 124.167,59.1667 103.833,59.8333 83.5,60.5C 82.9569,60.44 82.6236,60.1067 82.5,59.5C 103.156,58.5003 123.823,58.167 144.5,58.5 Z"/></g>
<g><path style="opacity:1" fill="#034f9c" d="M 60.5,43.5 C 60.8333,43.5 61.1667,43.5 61.5,43.5C 61.198,73.5249 61.5313,103.525 62.5,133.5C 60.5033,130.84 59.0033,127.84 58,124.5C 57.5001,110.171 57.3334,95.8372 57.5,81.5C 57.3335,71.1613 57.5002,60.828 58,50.5C 58.8471,48.1457 59.6805,45.8123 60.5,43.5 Z"/></g>
<g><path style="opacity:1" fill="#1c64a3" d="M 144.5,58.5 C 145.043,58.56 145.376,58.8933 145.5,59.5C 124.844,60.4997 104.177,60.833 83.5,60.5C 103.833,59.8333 124.167,59.1667 144.5,58.5 Z"/></g>
<g><path style="opacity:1" fill="#8a5bea" d="M 60.5,43.5 C 59.6805,45.8123 58.8471,48.1457 58,50.5C 57.5002,60.828 57.3335,71.1613 57.5,81.5C 56.7784,81.0825 56.2784,80.4158 56,79.5C 37.243,80.4927 18.4097,80.826 -0.5,80.5C -0.5,67.8333 -0.5,55.1667 -0.5,42.5C 18.5029,42.3334 37.5029,42.5001 56.5,43C 56.1667,43.3333 55.8333,43.6667 55.5,44C 57.0174,45.7785 57.8508,45.2785 58,42.5C 58.3333,42.8333 58.6667,43.1667 59,43.5C 59.7792,40.9028 60.2792,40.9028 60.5,43.5 Z"/></g>
<g><path style="opacity:1" fill="#f2f5f8" d="M 62.5,42.5 C 62.5,50.1667 62.5,57.8333 62.5,65.5C 97.1667,65.5 131.833,65.5 166.5,65.5C 166.5,73.5 166.5,81.5 166.5,89.5C 163.721,89.7214 161.054,89.388 158.5,88.5C 158.389,87.8826 158.056,87.3826 157.5,87C 153.514,86.5012 149.514,86.3345 145.5,86.5C 145.5,87.8333 145.5,89.1667 145.5,90.5C 144.193,91.1534 142.86,91.8201 141.5,92.5C 140.828,91.0508 140.161,89.7175 139.5,88.5C 139.389,87.8826 139.056,87.3826 138.5,87C 134.514,86.5012 130.514,86.3345 126.5,86.5C 126.335,90.1817 126.501,93.8484 127,97.5C 127.383,98.056 127.883,98.3893 128.5,98.5C 129.263,99.2679 130.263,99.7679 131.5,100C 123.793,108.643 120.96,118.81 123,130.5C 123.977,133.102 125.144,135.602 126.5,138C 107.17,138.5 87.8362,138.667 68.5,138.5C 65.865,137.527 63.865,135.86 62.5,133.5C 61.5313,103.525 61.198,73.5249 61.5,43.5C 61.5,42.8333 61.8333,42.5 62.5,42.5 Z"/></g>
<g><path style="opacity:1" fill="#13549d" d="M 69.5,69.5 C 73.4367,69.2065 77.27,69.5399 81,70.5C 81.7927,74.423 81.626,78.2564 80.5,82C 69.2503,84.5818 65.5836,80.4151 69.5,69.5 Z"/></g>
<g><path style="opacity:1" fill="#1e59a0" d="M 88.5,69.5 C 99.4874,66.6557 103.654,70.6557 101,81.5C 89.0915,85.424 84.9249,81.424 88.5,69.5 Z"/></g>
<g><path style="opacity:1" fill="#15549d" d="M 107.5,69.5 C 118.487,66.6557 122.654,70.6557 120,81.5C 116.214,82.7948 112.38,82.7948 108.5,81.5C 107.567,77.5705 107.234,73.5705 107.5,69.5 Z"/></g>
<g><path style="opacity:1" fill="#14549d" d="M 126.5,69.5 C 130.514,69.3345 134.514,69.5012 138.5,70C 139.626,73.7436 139.793,77.577 139,81.5C 127.975,84.9787 123.809,80.9787 126.5,69.5 Z"/></g>
<g><path style="opacity:1" fill="#19569f" d="M 146.5,69.5 C 156.973,66.4828 161.139,70.1495 159,80.5C 147.245,85.5806 143.078,81.914 146.5,69.5 Z"/></g>
<g><path style="opacity:1" fill="#905ce9" d="M 255.5,62.5 C 255.5,75.8333 255.5,89.1667 255.5,102.5C 234.164,102.667 212.831,102.5 191.5,102C 189.973,100.368 188.307,100.201 186.5,101.5C 188.484,103.046 188.817,104.713 187.5,106.5C 187.167,106.5 186.833,106.5 186.5,106.5C 183.16,99.8271 178.16,94.8271 171.5,91.5C 171.168,82.1429 171.502,72.8096 172.5,63.5C 173.333,62.5 174.167,61.5 175,60.5C 201.607,62.486 228.44,63.1527 255.5,62.5 Z"/></g>
<g><path style="opacity:1" fill="#03509b" d="M 68.5,86.5 C 72.5138,86.3345 76.5138,86.5012 80.5,87C 81.4601,90.73 81.7935,94.5633 81.5,98.5C 77.4862,98.6655 73.4862,98.4988 69.5,98C 68.5399,94.27 68.2065,90.4367 68.5,86.5 Z"/></g>
<g><path style="opacity:1" fill="#c4e5ca" d="M 101.5,88.5 C 100.795,91.2281 100.128,94.0614 99.5,97C 95.8484,97.4986 92.1817,97.6653 88.5,97.5C 87.5184,94.0381 87.185,90.3714 87.5,86.5C 91.5138,86.3345 95.5138,86.5012 99.5,87C 100.416,87.2784 101.082,87.7784 101.5,88.5 Z"/></g>
<g><path style="opacity:1" fill="#07649c" d="M 107.5,86.5 C 111.514,86.3345 115.514,86.5012 119.5,87C 120.46,90.73 120.793,94.5633 120.5,98.5C 116.486,98.6655 112.486,98.4988 108.5,98C 107.54,94.27 107.207,90.4367 107.5,86.5 Z"/></g>
<g><path style="opacity:1" fill="#03509b" d="M 139.5,88.5 C 139.66,90.1992 139.494,91.8659 139,93.5C 137.482,94.1634 136.315,95.1634 135.5,96.5C 133.521,98.1675 131.188,98.8342 128.5,98.5C 127.883,98.3893 127.383,98.056 127,97.5C 126.501,93.8484 126.335,90.1817 126.5,86.5C 130.514,86.3345 134.514,86.5012 138.5,87C 139.056,87.3826 139.389,87.8826 139.5,88.5 Z"/></g>
<g><path style="opacity:1" fill="#07519b" d="M 158.5,88.5 C 154.21,88.1977 150.21,88.8643 146.5,90.5C 146.167,90.5 145.833,90.5 145.5,90.5C 145.5,89.1667 145.5,87.8333 145.5,86.5C 149.514,86.3345 153.514,86.5012 157.5,87C 158.056,87.3826 158.389,87.8826 158.5,88.5 Z"/></g>
<g><path style="opacity:1" fill="#3b84af" d="M 166.5,42.5 C 167.338,42.8417 167.672,43.5084 167.5,44.5C 167.167,59.8478 167.501,75.1811 168.5,90.5C 169.183,90.8627 169.85,91.1961 170.5,91.5C 170.5,92.5 170.5,93.5 170.5,94.5C 171.552,94.3505 172.552,94.5172 173.5,95C 172.829,95.9862 172.829,97.1529 173.5,98.5C 165.905,95.0012 157.905,93.6678 149.5,94.5C 148.048,93.6981 146.382,93.1981 144.5,93C 145.381,92.2917 146.047,91.4584 146.5,90.5C 150.21,88.8643 154.21,88.1977 158.5,88.5C 161.054,89.388 163.721,89.7214 166.5,89.5C 166.5,81.5 166.5,73.5 166.5,65.5C 166.5,57.8333 166.5,50.1667 166.5,42.5 Z"/></g>
<g><path style="opacity:1" fill="#88b9bf" d="M 139.5,88.5 C 140.161,89.7175 140.828,91.0508 141.5,92.5C 142.86,91.8201 144.193,91.1534 145.5,90.5C 145.833,90.5 146.167,90.5 146.5,90.5C 146.047,91.4584 145.381,92.2917 144.5,93C 146.382,93.1981 148.048,93.6981 149.5,94.5C 145.297,95.9348 141.297,97.9348 137.5,100.5C 137.843,98.5168 137.176,97.1834 135.5,96.5C 136.315,95.1634 137.482,94.1634 139,93.5C 139.494,91.8659 139.66,90.1992 139.5,88.5 Z"/></g>
<g><path style="opacity:1" fill="#4b85b0" d="M 101.5,88.5 C 101.784,91.7766 101.451,94.9433 100.5,98C 96.3112,98.8119 92.3112,98.6453 88.5,97.5C 92.1817,97.6653 95.8484,97.4986 99.5,97C 100.128,94.0614 100.795,91.2281 101.5,88.5 Z"/></g>
<g><path style="opacity:1" fill="#955de8" d="M 57.5,81.5 C 57.3334,95.8372 57.5001,110.171 58,124.5C 59.0033,127.84 60.5033,130.84 62.5,133.5C 63.865,135.86 65.865,137.527 68.5,138.5C 68.8417,139.338 69.5084,139.672 70.5,139.5C 70.5,140.167 70.8333,140.5 71.5,140.5C 70.6649,141.943 69.3316,142.943 67.5,143.5C 70.3043,144.105 72.971,144.938 75.5,146C 94.1637,146.5 112.83,146.667 131.5,146.5C 133.878,148.878 136.545,150.878 139.5,152.5C 140.833,153.5 142.167,154.5 143.5,155.5C 140.167,155.5 136.833,155.5 133.5,155.5C 127.12,155.393 120.787,155.893 114.5,157C 115.623,158.044 116.956,158.71 118.5,159C 138.167,159.667 157.833,159.667 177.5,159C 179.167,158.667 180.833,158.333 182.5,158C 182.167,157.667 181.833,157.333 181.5,157C 177.608,156.581 173.942,155.748 170.5,154.5C 172.5,153.5 174.5,152.5 176.5,151.5C 180.957,148.381 184.291,144.381 186.5,139.5C 192.734,128.769 193.068,117.769 187.5,106.5C 188.817,104.713 188.484,103.046 186.5,101.5C 188.307,100.201 189.973,100.368 191.5,102C 212.831,102.5 234.164,102.667 255.5,102.5C 255.5,153.5 255.5,204.5 255.5,255.5C 170.167,255.5 84.8333,255.5 -0.5,255.5C -0.5,197.167 -0.5,138.833 -0.5,80.5C 18.4097,80.826 37.243,80.4927 56,79.5C 56.2784,80.4158 56.7784,81.0825 57.5,81.5 Z"/></g>
<g><path style="opacity:1" fill="#c6e7ca" d="M 80.5,104.5 C 80.5,107.5 80.5,110.5 80.5,113.5C 77.0381,114.482 73.3714,114.815 69.5,114.5C 68.5184,111.038 68.185,107.371 68.5,103.5C 72.7016,103.183 76.7016,103.517 80.5,104.5 Z"/></g>
<g><path style="opacity:1" fill="#c3e5ca" d="M 101.5,105.5 C 100.795,108.228 100.128,111.061 99.5,114C 96.1832,114.498 92.8499,114.665 89.5,114.5C 88.8826,114.389 88.3826,114.056 88,113.5C 87.5017,110.183 87.335,106.85 87.5,103.5C 91.8461,103.334 96.1794,103.501 100.5,104C 101.056,104.383 101.389,104.883 101.5,105.5 Z"/></g>
<g><path style="opacity:1" fill="#034f9b" d="M 107.5,103.5 C 111.514,103.334 115.514,103.501 119.5,104C 123.315,114.852 119.648,118.519 108.5,115C 107.54,111.27 107.207,107.437 107.5,103.5 Z"/></g>
<g><path style="opacity:1" fill="#85a9c9" d="M 149.5,94.5 C 157.905,93.6678 165.905,95.0012 173.5,98.5C 186.215,109.485 189.048,122.818 182,138.5C 180.334,140.996 178.5,143.329 176.5,145.5C 171.567,149.047 166.067,151.38 160,152.5C 158.946,153.482 158.446,154.649 158.5,156C 155.518,156.498 152.518,156.665 149.5,156.5C 148.5,156.5 147.5,156.5 146.5,156.5C 145.791,155.596 144.791,155.263 143.5,155.5C 142.167,154.5 140.833,153.5 139.5,152.5C 141.167,152.5 142.833,152.5 144.5,152.5C 144.719,151.325 144.386,150.325 143.5,149.5C 129.374,140.291 124.874,127.624 130,111.5C 132.016,107.458 134.516,103.791 137.5,100.5C 141.297,97.9348 145.297,95.9348 149.5,94.5 Z"/></g>
<g><path style="opacity:1" fill="#f8f8fb" d="M 149.5,96.5 C 173.979,94.8123 185.146,106.146 183,130.5C 178.098,144.373 168.265,150.873 153.5,150C 138.587,146.917 130.587,137.751 129.5,122.5C 130.916,109.616 137.583,100.95 149.5,96.5 Z"/></g>
<g><path style="opacity:1" fill="#377baa" d="M 167.5,100.5 C 168.5,100.5 169.5,100.5 170.5,100.5C 170.5,101.833 170.5,103.167 170.5,104.5C 169.5,104.5 168.5,104.5 167.5,104.5C 167.5,103.167 167.5,101.833 167.5,100.5 Z"/></g>
<g><path style="opacity:1" fill="#377aaa" d="M 143.5,100.5 C 144.5,100.5 145.5,100.5 146.5,100.5C 146.5,101.833 146.5,103.167 146.5,104.5C 145.5,104.5 144.5,104.5 143.5,104.5C 143.5,103.167 143.5,101.833 143.5,100.5 Z"/></g>
<g><path style="opacity:1" fill="#116ba0" d="M 155.5,97.5 C 156.5,97.5 157.5,97.5 158.5,97.5C 158.5,98.5 158.5,99.5 158.5,100.5C 157.5,100.5 156.5,100.5 155.5,100.5C 155.5,99.5 155.5,98.5 155.5,97.5 Z"/></g>
<g><path style="opacity:1" fill="#8cafcc" d="M 80.5,104.5 C 81.1174,104.611 81.6174,104.944 82,105.5C 82.8045,108.696 82.6378,111.696 81.5,114.5C 81.5,113.833 81.1667,113.5 80.5,113.5C 80.5,110.5 80.5,107.5 80.5,104.5 Z"/></g>
<g><path style="opacity:1" fill="#3377a8" d="M 134.5,109.5 C 136.346,109.222 137.68,109.889 138.5,111.5C 137.311,112.429 135.978,112.762 134.5,112.5C 134.5,111.5 134.5,110.5 134.5,109.5 Z"/></g>
<g><path style="opacity:1" fill="#3977ac" d="M 176.5,109.5 C 177.995,109.415 178.995,110.081 179.5,111.5C 178.167,112.833 176.833,112.833 175.5,111.5C 175.863,110.817 176.196,110.15 176.5,109.5 Z"/></g>
<g><path style="opacity:1" fill="#2464a4" d="M 80.5,113.5 C 81.1667,113.5 81.5,113.833 81.5,114.5C 77.5,115.833 73.5,115.833 69.5,114.5C 73.3714,114.815 77.0381,114.482 80.5,113.5 Z"/></g>
<g><path style="opacity:1" fill="#306aa9" d="M 101.5,105.5 C 101.784,108.777 101.451,111.943 100.5,115C 96.6425,115.81 92.9758,115.643 89.5,114.5C 92.8499,114.665 96.1832,114.498 99.5,114C 100.128,111.061 100.795,108.228 101.5,105.5 Z"/></g>
<g><path style="opacity:1" fill="#2656b0" d="M 186.5,106.5 C 186.833,106.5 187.167,106.5 187.5,106.5C 193.068,117.769 192.734,128.769 186.5,139.5C 186.5,128.5 186.5,117.5 186.5,106.5 Z"/></g>
<g><path style="opacity:1" fill="#89b0c9" d="M 81.5,121.5 C 80.7986,124.563 80.132,127.73 79.5,131C 76.5184,131.498 73.5184,131.665 70.5,131.5C 69.8826,131.389 69.3826,131.056 69,130.5C 68.2114,126.909 68.3781,123.409 69.5,120C 73.1667,119.333 76.8333,119.333 80.5,120C 81.056,120.383 81.3893,120.883 81.5,121.5 Z"/></g>
<g><path style="opacity:1" fill="#c4e5ca" d="M 100.5,121.5 C 100.74,124.579 100.407,127.579 99.5,130.5C 96.2317,131.487 92.8984,131.82 89.5,131.5C 88.8826,131.389 88.3826,131.056 88,130.5C 87.2114,126.909 87.3781,123.409 88.5,120C 92.1667,119.333 95.8333,119.333 99.5,120C 100.056,120.383 100.389,120.883 100.5,121.5 Z"/></g>
<g><path style="opacity:1" fill="#88b0c9" d="M 119.5,121.5 C 119.665,124.518 119.498,127.518 119,130.5C 115.73,131.132 112.563,131.799 109.5,132.5C 108.883,132.389 108.383,132.056 108,131.5C 107.501,127.514 107.334,123.514 107.5,119.5C 111.182,119.335 114.848,119.501 118.5,120C 119.056,120.383 119.389,120.883 119.5,121.5 Z"/></g>
<g><path style="opacity:1" fill="#3077a7" d="M 156.5,102.5 C 157.117,102.611 157.617,102.944 158,103.5C 157.926,110.383 158.926,117.05 161,123.5C 165.314,125.736 169.481,128.07 173.5,130.5C 173,130.833 172.5,131.167 172,131.5C 167.919,130.029 163.919,128.362 160,126.5C 158.779,127.272 157.779,128.272 157,129.5C 155.414,126.659 153.58,123.993 151.5,121.5C 152.689,120.571 154.022,120.238 155.5,120.5C 155.211,114.409 155.545,108.409 156.5,102.5 Z"/></g>
<g><path style="opacity:1" fill="#1f6ea2" d="M 179.5,121.5 C 180.5,121.5 181.5,121.5 182.5,121.5C 182.5,122.5 182.5,123.5 182.5,124.5C 181.5,124.5 180.5,124.5 179.5,124.5C 179.5,123.5 179.5,122.5 179.5,121.5 Z"/></g>
<g><path style="opacity:1" fill="#0d6a9f" d="M 131.5,121.5 C 132.5,121.5 133.5,121.5 134.5,121.5C 134.5,122.5 134.5,123.5 134.5,124.5C 133.5,124.5 132.5,124.5 131.5,124.5C 131.5,123.5 131.5,122.5 131.5,121.5 Z"/></g>
<g><path style="opacity:1" fill="#2b6cab" d="M 81.5,121.5 C 81.7892,125.106 81.4558,128.606 80.5,132C 76.9733,132.808 73.6399,132.641 70.5,131.5C 73.5184,131.665 76.5184,131.498 79.5,131C 80.132,127.73 80.7986,124.563 81.5,121.5 Z"/></g>
<g><path style="opacity:1" fill="#3e75b2" d="M 100.5,121.5 C 101.82,124.899 101.82,128.399 100.5,132C 96.6425,132.81 92.9758,132.643 89.5,131.5C 92.8984,131.82 96.2317,131.487 99.5,130.5C 100.407,127.579 100.74,124.579 100.5,121.5 Z"/></g>
<g><path style="opacity:1" fill="#2867a9" d="M 119.5,121.5 C 120.641,124.64 120.808,127.973 120,131.5C 116.606,132.456 113.106,132.789 109.5,132.5C 112.563,131.799 115.73,131.132 119,130.5C 119.498,127.518 119.665,124.518 119.5,121.5 Z"/></g>
<g><path style="opacity:1" fill="#1d6fa3" d="M 134.5,133.5 C 135.833,133.5 137.167,133.5 138.5,133.5C 138.5,134.5 138.5,135.5 138.5,136.5C 137.167,136.5 135.833,136.5 134.5,136.5C 134.5,135.5 134.5,134.5 134.5,133.5 Z"/></g>
<g><path style="opacity:1" fill="#437baf" d="M 175.5,133.5 C 176.833,133.5 178.167,133.5 179.5,133.5C 179.5,134.5 179.5,135.5 179.5,136.5C 178.167,136.5 176.833,136.5 175.5,136.5C 175.5,135.5 175.5,134.5 175.5,133.5 Z"/></g>
<g><path style="opacity:1" fill="#1665a8" d="M 170.5,91.5 C 170.833,91.5 171.167,91.5 171.5,91.5C 178.16,94.8271 183.16,99.8271 186.5,106.5C 186.5,117.5 186.5,128.5 186.5,139.5C 184.291,144.381 180.957,148.381 176.5,151.5C 175.167,149.5 175.167,147.5 176.5,145.5C 178.5,143.329 180.334,140.996 182,138.5C 189.048,122.818 186.215,109.485 173.5,98.5C 172.829,97.1529 172.829,95.9862 173.5,95C 172.552,94.5172 171.552,94.3505 170.5,94.5C 170.5,93.5 170.5,92.5 170.5,91.5 Z"/></g>
<g><path style="opacity:1" fill="#014e9c" d="M 70.5,139.5 C 89.1696,139.333 107.836,139.5 126.5,140C 127.252,140.671 127.586,141.504 127.5,142.5C 110.183,141.622 92.8502,141.288 75.5,141.5C 74.0413,141.567 72.7079,141.234 71.5,140.5C 70.8333,140.5 70.5,140.167 70.5,139.5 Z"/></g>
<g><path style="opacity:1" fill="#404393" d="M 75.5,141.5 C 92.8502,141.288 110.183,141.622 127.5,142.5C 128.5,142.833 129.167,143.5 129.5,144.5C 125.167,144.5 120.833,144.5 116.5,144.5C 105.674,145.659 94.6745,145.826 83.5,145C 81.0995,144.814 78.7662,144.314 76.5,143.5C 76.1373,142.817 75.8039,142.15 75.5,141.5 Z"/></g>
<g><path style="opacity:1" fill="#321f4e" d="M 116.5,144.5 C 106.81,144.832 97.1437,144.498 87.5,143.5C 92.3333,143.167 97.1667,142.833 102,142.5C 107.216,142.506 112.049,143.173 116.5,144.5 Z"/></g>
<g><path style="opacity:1" fill="#9cc4c4" d="M 135.5,96.5 C 137.176,97.1834 137.843,98.5168 137.5,100.5C 134.516,103.791 132.016,107.458 130,111.5C 124.874,127.624 129.374,140.291 143.5,149.5C 144.386,150.325 144.719,151.325 144.5,152.5C 142.833,152.5 141.167,152.5 139.5,152.5C 136.545,150.878 133.878,148.878 131.5,146.5C 131.167,145.5 130.5,144.833 129.5,144.5C 129.167,143.5 128.5,142.833 127.5,142.5C 127.586,141.504 127.252,140.671 126.5,140C 107.836,139.5 89.1696,139.333 70.5,139.5C 69.5084,139.672 68.8417,139.338 68.5,138.5C 87.8362,138.667 107.17,138.5 126.5,138C 125.144,135.602 123.977,133.102 123,130.5C 120.96,118.81 123.793,108.643 131.5,100C 130.263,99.7679 129.263,99.2679 128.5,98.5C 131.188,98.8342 133.521,98.1675 135.5,96.5 Z"/></g>
<g><path style="opacity:1" fill="#186ba1" d="M 143.5,142.5 C 144.5,142.5 145.5,142.5 146.5,142.5C 146.5,143.5 146.5,144.5 146.5,145.5C 145.5,145.5 144.5,145.5 143.5,145.5C 143.5,144.5 143.5,143.5 143.5,142.5 Z"/></g>
<g><path style="opacity:1" fill="#1b6da2" d="M 167.5,142.5 C 168.5,142.5 169.5,142.5 170.5,142.5C 170.5,143.5 170.5,144.5 170.5,145.5C 169.5,145.5 168.5,145.5 167.5,145.5C 167.5,144.5 167.5,143.5 167.5,142.5 Z"/></g>
<g><path style="opacity:1" fill="#8050c7" d="M 71.5,140.5 C 72.7079,141.234 74.0413,141.567 75.5,141.5C 75.8039,142.15 76.1373,142.817 76.5,143.5C 78.7662,144.314 81.0995,144.814 83.5,145C 94.6745,145.826 105.674,145.659 116.5,144.5C 120.833,144.5 125.167,144.5 129.5,144.5C 130.5,144.833 131.167,145.5 131.5,146.5C 112.83,146.667 94.1637,146.5 75.5,146C 72.971,144.938 70.3043,144.105 67.5,143.5C 69.3316,142.943 70.6649,141.943 71.5,140.5 Z"/></g>
<g><path style="opacity:1" fill="#0b699f" d="M 155.5,145.5 C 156.5,145.5 157.5,145.5 158.5,145.5C 158.5,146.5 158.5,147.5 158.5,148.5C 157.5,148.5 156.5,148.5 155.5,148.5C 155.5,147.5 155.5,146.5 155.5,145.5 Z"/></g>
<g><path style="opacity:1" fill="#417cae" d="M 176.5,145.5 C 175.167,147.5 175.167,149.5 176.5,151.5C 174.5,152.5 172.5,153.5 170.5,154.5C 168.579,155.363 166.579,156.029 164.5,156.5C 159.369,157.751 154.369,157.751 149.5,156.5C 152.518,156.665 155.518,156.498 158.5,156C 158.446,154.649 158.946,153.482 160,152.5C 166.067,151.38 171.567,149.047 176.5,145.5 Z"/></g>
<g><path style="opacity:1" fill="#6941a3" d="M 170.5,154.5 C 173.942,155.748 177.608,156.581 181.5,157C 181.833,157.333 182.167,157.667 182.5,158C 180.833,158.333 179.167,158.667 177.5,159C 157.833,159.667 138.167,159.667 118.5,159C 116.956,158.71 115.623,158.044 114.5,157C 120.787,155.893 127.12,155.393 133.5,155.5C 132.602,156.158 131.602,156.824 130.5,157.5C 133.428,158.484 136.428,158.817 139.5,158.5C 148.234,159.135 156.567,158.468 164.5,156.5C 166.579,156.029 168.579,155.363 170.5,154.5 Z"/></g>
<g><path style="opacity:1" fill="#321f4e" d="M 146.5,156.5 C 147.5,156.5 148.5,156.5 149.5,156.5C 154.369,157.751 159.369,157.751 164.5,156.5C 156.567,158.468 148.234,159.135 139.5,158.5C 139.611,157.883 139.944,157.383 140.5,157C 142.473,156.505 144.473,156.338 146.5,156.5 Z"/></g>
<g><path style="opacity:1" fill="#563585" d="M 133.5,155.5 C 136.833,155.5 140.167,155.5 143.5,155.5C 144.791,155.263 145.791,155.596 146.5,156.5C 144.473,156.338 142.473,156.505 140.5,157C 139.944,157.383 139.611,157.883 139.5,158.5C 136.428,158.817 133.428,158.484 130.5,157.5C 131.602,156.824 132.602,156.158 133.5,155.5 Z"/></g>
<g><path style="opacity:1" fill="#f7f3fc" d="M 91.5,167.5 C 93.6648,167.116 95.3315,167.783 96.5,169.5C 95.3315,171.217 93.6648,171.884 91.5,171.5C 91.5,170.167 91.5,168.833 91.5,167.5 Z"/></g>
<g><path style="opacity:1" fill="#f7f3fc" d="M 108.5,166.5 C 110.167,166.5 111.833,166.5 113.5,166.5C 113.5,174.5 113.5,182.5 113.5,190.5C 109.644,190.145 105.644,189.978 101.5,190C 97.19,184.286 97.5234,178.953 102.5,174C 104.441,173.257 106.274,173.424 108,174.5C 108.497,171.854 108.664,169.187 108.5,166.5 Z"/></g>
<g><path style="opacity:1" fill="#f5f0fc" d="M 134.5,166.5 C 136.167,166.5 137.833,166.5 139.5,166.5C 139.5,174.5 139.5,182.5 139.5,190.5C 137.833,190.5 136.167,190.5 134.5,190.5C 134.5,182.5 134.5,174.5 134.5,166.5 Z"/></g>
<g><path style="opacity:1" fill="#f7f3fc" d="M 159.5,167.5 C 161.665,167.116 163.332,167.783 164.5,169.5C 163.332,171.217 161.665,171.884 159.5,171.5C 159.5,170.167 159.5,168.833 159.5,167.5 Z"/></g>
<g><path style="opacity:1" fill="#faf8fd" d="M 70.5,168.5 C 77.1038,170.342 78.1038,173.842 73.5,179C 77.7475,183.163 77.4141,186.829 72.5,190C 68.5138,190.499 64.5138,190.666 60.5,190.5C 60.5,183.167 60.5,175.833 60.5,168.5C 63.8333,168.5 67.1667,168.5 70.5,168.5 Z"/></g>
<g><path style="opacity:1" fill="#fbfafd" d="M 142.5,168.5 C 143.833,168.5 145.167,168.5 146.5,168.5C 146.177,174.69 146.51,180.69 147.5,186.5C 150.833,186.5 154.167,186.5 157.5,186.5C 157.5,187.833 157.5,189.167 157.5,190.5C 152.5,190.5 147.5,190.5 142.5,190.5C 142.5,183.167 142.5,175.833 142.5,168.5 Z"/></g>
<g><path style="opacity:1" fill="#9d68ea" d="M 64.5,171.5 C 67.8806,170.888 70.2139,172.054 71.5,175C 71.3552,175.772 71.0219,176.439 70.5,177C 68.5273,177.495 66.5273,177.662 64.5,177.5C 64.5,175.5 64.5,173.5 64.5,171.5 Z"/></g>
<g><path style="opacity:1" fill="#f6f3fc" d="M 88.5,173.5 C 88.5,174.833 88.5,176.167 88.5,177.5C 87.209,177.263 86.209,177.596 85.5,178.5C 84.5166,182.298 84.1832,186.298 84.5,190.5C 82.8333,190.5 81.1667,190.5 79.5,190.5C 79.5,184.833 79.5,179.167 79.5,173.5C 82.6537,174.095 85.6537,174.095 88.5,173.5 Z"/></g>
<g><path style="opacity:1" fill="#f7f3fc" d="M 120.5,173.5 C 124.287,172.814 127.454,173.814 130,176.5C 130.226,180.887 130.726,185.221 131.5,189.5C 127.371,190.047 123.038,190.213 118.5,190C 116.464,187.701 116.131,185.201 117.5,182.5C 120.286,181.044 123.286,180.044 126.5,179.5C 126,178.119 125,177.453 123.5,177.5C 121.547,178.156 119.547,178.489 117.5,178.5C 117.31,176.041 118.31,174.374 120.5,173.5 Z"/></g>
<g><path style="opacity:1" fill="#f8f6fd" d="M 187.5,173.5 C 195.167,172.5 198.5,175.833 197.5,183.5C 194.102,183.18 190.768,183.513 187.5,184.5C 189.599,187.984 192.099,188.318 195,185.5C 197.826,186.917 197.993,188.417 195.5,190C 184.429,191.598 180.595,187.098 184,176.5C 185.145,175.364 186.312,174.364 187.5,173.5 Z"/></g>
<g><path style="opacity:1" fill="#cab2f3" d="M 70.5,168.5 C 67.1667,168.5 63.8333,168.5 60.5,168.5C 60.5,175.833 60.5,183.167 60.5,190.5C 59.508,183.018 59.1746,175.352 59.5,167.5C 63.3714,167.185 67.0381,167.518 70.5,168.5 Z"/></g>
<g><path style="opacity:1" fill="#c8aff2" d="M 88.5,173.5 C 89.4511,174.919 89.7845,176.585 89.5,178.5C 88.1667,178.5 86.8333,178.5 85.5,178.5C 86.209,177.596 87.209,177.263 88.5,177.5C 88.5,176.167 88.5,174.833 88.5,173.5 Z"/></g>
<g><path style="opacity:1" fill="#f5f0fc" d="M 91.5,173.5 C 93.1667,173.5 94.8333,173.5 96.5,173.5C 96.5,179.167 96.5,184.833 96.5,190.5C 94.8333,190.5 93.1667,190.5 91.5,190.5C 91.5,184.833 91.5,179.167 91.5,173.5 Z"/></g>
<g><path style="opacity:1" fill="#cbb2f3" d="M 142.5,168.5 C 143.919,167.549 145.585,167.216 147.5,167.5C 147.5,173.833 147.5,180.167 147.5,186.5C 146.51,180.69 146.177,174.69 146.5,168.5C 145.167,168.5 143.833,168.5 142.5,168.5 Z"/></g>
<g><path style="opacity:1" fill="#f5f0fc" d="M 159.5,173.5 C 161.167,173.5 162.833,173.5 164.5,173.5C 164.5,179.167 164.5,184.833 164.5,190.5C 162.833,190.5 161.167,190.5 159.5,190.5C 159.5,184.833 159.5,179.167 159.5,173.5 Z"/></g>
<g><path style="opacity:1" fill="#f7f3fc" d="M 166.5,173.5 C 168.167,173.5 169.833,173.5 171.5,173.5C 173.163,186.821 174.829,186.821 176.5,173.5C 178.167,173.5 179.833,173.5 181.5,173.5C 179.635,179.097 177.968,184.763 176.5,190.5C 174.833,190.5 173.167,190.5 171.5,190.5C 170.036,184.775 168.369,179.108 166.5,173.5 Z"/></g>
<g><path style="opacity:1" fill="#9c66e9" d="M 188.5,177.5 C 190.665,177.116 192.332,177.783 193.5,179.5C 191.5,180.833 189.5,180.833 187.5,179.5C 187.863,178.817 188.196,178.15 188.5,177.5 Z"/></g>
<g><path style="opacity:1" fill="#9962e9" d="M 104.5,177.5 C 105.833,177.5 107.167,177.5 108.5,177.5C 108.665,180.518 108.498,183.518 108,186.5C 106.667,187.833 105.333,187.833 104,186.5C 103.264,183.408 103.431,180.408 104.5,177.5 Z"/></g>
<g><path style="opacity:1" fill="#9c67ea" d="M 121.5,183.5 C 122.833,183.5 124.167,183.5 125.5,183.5C 125.5,184.833 125.5,186.167 125.5,187.5C 124.167,187.5 122.833,187.5 121.5,187.5C 121.5,186.167 121.5,184.833 121.5,183.5 Z"/></g>
<g><path style="opacity:1" fill="#9861e9" d="M 64.5,180.5 C 66.5273,180.338 68.5273,180.505 70.5,181C 71.8333,182.667 71.8333,184.333 70.5,186C 68.5273,186.495 66.5273,186.662 64.5,186.5C 64.5,184.5 64.5,182.5 64.5,180.5 Z"/></g>
<g><path style="opacity:1" fill="#f0e8fb" d="M 113.5,197.5 C 114.833,197.5 116.167,197.5 117.5,197.5C 117.99,199.948 117.157,201.615 115,202.5C 112.389,201.5 111.889,199.833 113.5,197.5 Z"/></g>
<g><path style="opacity:1" fill="#f5f0fc" d="M 58.5,219.5 C 58.5,219.833 58.5,220.167 58.5,220.5C 54.8584,219.82 51.5251,218.487 48.5,216.5C 45.4749,218.487 42.1416,219.82 38.5,220.5C 40.8333,213.167 43.1667,205.833 45.5,198.5C 47.5,198.5 49.5,198.5 51.5,198.5C 53.6318,205.562 55.9651,212.562 58.5,219.5 Z"/></g>
<g><path style="opacity:1" fill="#c8aff2" d="M 139.5,200.5 C 140.919,199.549 142.585,199.216 144.5,199.5C 144.5,200.833 144.5,202.167 144.5,203.5C 143.596,202.791 143.263,201.791 143.5,200.5C 142.167,200.5 140.833,200.5 139.5,200.5 Z"/></g>
<g><path style="opacity:1" fill="#f6f2fc" d="M 139.5,200.5 C 140.833,200.5 142.167,200.5 143.5,200.5C 143.263,201.791 143.596,202.791 144.5,203.5C 145.278,204.156 145.944,204.989 146.5,206C 144.773,209.276 144.106,212.776 144.5,216.5C 145.5,216.5 146.5,216.5 147.5,216.5C 147.5,217.833 147.5,219.167 147.5,220.5C 145.473,220.662 143.473,220.495 141.5,220C 140.874,219.25 140.374,218.416 140,217.5C 139.868,213.338 139.034,209.338 137.5,205.5C 138.547,203.944 139.214,202.277 139.5,200.5 Z"/></g>
<g><path style="opacity:1" fill="#f6f1fc" d="M 211.5,200.5 C 212.833,200.5 214.167,200.5 215.5,200.5C 215.263,201.791 215.596,202.791 216.5,203.5C 217.278,204.156 217.944,204.989 218.5,206C 216.773,209.276 216.106,212.776 216.5,216.5C 217.5,216.5 218.5,216.5 219.5,216.5C 219.5,217.833 219.5,219.167 219.5,220.5C 217.473,220.662 215.473,220.495 213.5,220C 212.874,219.25 212.374,218.416 212,217.5C 211.868,213.338 211.034,209.338 209.5,205.5C 210.547,203.944 211.214,202.277 211.5,200.5 Z"/></g>
<g><path style="opacity:1" fill="#c8aff3" d="M 211.5,200.5 C 212.919,199.549 214.585,199.216 216.5,199.5C 216.5,200.833 216.5,202.167 216.5,203.5C 215.596,202.791 215.263,201.791 215.5,200.5C 214.167,200.5 212.833,200.5 211.5,200.5 Z"/></g>
<g><path style="opacity:1" fill="#faf7fd" d="M 60.5,226.5 C 60.5,219.167 60.5,211.833 60.5,204.5C 61.8333,204.5 63.1667,204.5 64.5,204.5C 72.671,202.5 76.171,206.167 75,215.5C 73.0133,220.272 69.68,221.605 65,219.5C 64.5034,221.81 64.3367,224.143 64.5,226.5C 63.1667,226.5 61.8333,226.5 60.5,226.5 Z"/></g>
<g><path style="opacity:1" fill="#f7f4fc" d="M 83.5,220.5 C 83.44,219.957 83.1067,219.624 82.5,219.5C 81.5258,221.743 81.1924,224.076 81.5,226.5C 80.5,226.5 79.5,226.5 78.5,226.5C 78.5,219.167 78.5,211.833 78.5,204.5C 79.5,204.5 80.5,204.5 81.5,204.5C 85.9374,202.548 89.4374,203.548 92,207.5C 93.0738,212.109 92.2404,216.276 89.5,220C 87.5273,220.495 85.5273,220.662 83.5,220.5 Z"/></g>
<g><path style="opacity:1" fill="#f6f2fc" d="M 99.5,203.5 C 107.761,203.264 111.261,207.264 110,215.5C 107.565,220.224 103.731,221.724 98.5,220C 94.7235,217.045 93.5568,213.212 95,208.5C 96.025,206.313 97.525,204.646 99.5,203.5 Z"/></g>
<g><path style="opacity:1" fill="#f7f3fc" d="M 121.5,220.5 C 121.5,215.167 121.5,209.833 121.5,204.5C 122.833,204.5 124.167,204.5 125.5,204.5C 125.435,204.938 125.601,205.272 126,205.5C 128.795,202.887 131.629,202.887 134.5,205.5C 135.448,210.435 135.781,215.435 135.5,220.5C 133.833,220.5 132.167,220.5 130.5,220.5C 130.5,216.167 130.5,211.833 130.5,207.5C 128.856,207.286 127.356,207.62 126,208.5C 125.501,212.486 125.334,216.486 125.5,220.5C 124.167,220.5 122.833,220.5 121.5,220.5 Z"/></g>
<g><path style="opacity:1" fill="#b896ef" d="M 153.5,204.5 C 152.167,204.5 150.833,204.5 149.5,204.5C 149.5,209.833 149.5,215.167 149.5,220.5C 148.511,215.025 148.178,209.358 148.5,203.5C 150.415,203.216 152.081,203.549 153.5,204.5 Z"/></g>
<g><path style="opacity:1" fill="#f9f7fd" d="M 149.5,220.5 C 149.5,215.167 149.5,209.833 149.5,204.5C 150.833,204.5 152.167,204.5 153.5,204.5C 153.435,204.938 153.601,205.272 154,205.5C 156.795,202.887 159.629,202.887 162.5,205.5C 165.703,202.878 168.87,202.878 172,205.5C 172.499,210.489 172.666,215.489 172.5,220.5C 171.167,220.5 169.833,220.5 168.5,220.5C 168.666,216.486 168.499,212.486 168,208.5C 166.667,207.167 165.333,207.167 164,208.5C 163.501,212.486 163.334,216.486 163.5,220.5C 161.833,220.5 160.167,220.5 158.5,220.5C 158.5,216.167 158.5,211.833 158.5,207.5C 156.856,207.286 155.356,207.62 154,208.5C 153.501,212.486 153.334,216.486 153.5,220.5C 152.167,220.5 150.833,220.5 149.5,220.5 Z"/></g>
<g><path style="opacity:1" fill="#f7f3fc" d="M 180.5,203.5 C 187.5,203.167 190.833,206.5 190.5,213.5C 187.102,213.18 183.768,213.513 180.5,214.5C 182.599,217.984 185.099,218.318 188,215.5C 189.758,216.469 190.258,217.636 189.5,219C 181.835,222.671 177.168,220.504 175.5,212.5C 175.377,208.405 177.044,205.405 180.5,203.5 Z"/></g>
<g><path style="opacity:1" fill="#f7f3fc" d="M 193.5,220.5 C 193.5,215.167 193.5,209.833 193.5,204.5C 194.833,204.5 196.167,204.5 197.5,204.5C 197.435,204.938 197.601,205.272 198,205.5C 200.795,202.887 203.629,202.887 206.5,205.5C 207.448,210.435 207.781,215.435 207.5,220.5C 205.833,220.5 204.167,220.5 202.5,220.5C 202.5,216.167 202.5,211.833 202.5,207.5C 200.856,207.286 199.356,207.62 198,208.5C 197.501,212.486 197.334,216.486 197.5,220.5C 196.167,220.5 194.833,220.5 193.5,220.5 Z"/></g>
<g><path style="opacity:1" fill="#965ce8" d="M 50.5,210.5 C 49.1667,211.833 47.8333,211.833 46.5,210.5C 47.8333,205.167 49.1667,205.167 50.5,210.5 Z"/></g>
<g><path style="opacity:1" fill="#dbccf6" d="M 116.5,220.5 C 116.5,215.167 116.5,209.833 116.5,204.5C 115.5,204.5 114.5,204.5 113.5,204.5C 113.5,209.833 113.5,215.167 113.5,220.5C 112.511,215.025 112.178,209.358 112.5,203.5C 114.167,203.5 115.833,203.5 117.5,203.5C 117.822,209.358 117.489,215.025 116.5,220.5 Z"/></g>
<g><path style="opacity:1" fill="#fefefe" d="M 116.5,220.5 C 115.5,220.5 114.5,220.5 113.5,220.5C 113.5,215.167 113.5,209.833 113.5,204.5C 114.5,204.5 115.5,204.5 116.5,204.5C 116.5,209.833 116.5,215.167 116.5,220.5 Z"/></g>
<g><path style="opacity:1" fill="#9861e9" d="M 181.5,207.5 C 182.833,207.5 184.167,207.5 185.5,207.5C 185.5,208.5 185.5,209.5 185.5,210.5C 183.712,210.785 182.045,210.452 180.5,209.5C 180.863,208.817 181.196,208.15 181.5,207.5 Z"/></g>
<g><path style="opacity:1" fill="#9962e9" d="M 100.5,207.5 C 102.144,207.286 103.644,207.62 105,208.5C 105.667,210.833 105.667,213.167 105,215.5C 103.604,217.527 101.938,217.86 100,216.5C 99.2642,213.408 99.4309,210.408 100.5,207.5 Z"/></g>
<g><path style="opacity:1" fill="#cab3f2" d="M 125.5,204.5 C 124.167,204.5 122.833,204.5 121.5,204.5C 121.5,209.833 121.5,215.167 121.5,220.5C 120.511,215.025 120.178,209.358 120.5,203.5C 122.415,203.216 124.081,203.549 125.5,204.5 Z"/></g>
<g><path style="opacity:1" fill="#cab3f2" d="M 197.5,204.5 C 196.167,204.5 194.833,204.5 193.5,204.5C 193.5,209.833 193.5,215.167 193.5,220.5C 192.511,215.025 192.178,209.358 192.5,203.5C 194.415,203.216 196.081,203.549 197.5,204.5 Z"/></g>
<g><path style="opacity:1" fill="#bfa2f1" d="M 46.5,210.5 C 47.8333,211.833 49.1667,211.833 50.5,210.5C 51.0431,210.56 51.3764,210.893 51.5,211.5C 49.5,212.833 47.5,212.833 45.5,211.5C 45.6236,210.893 45.9569,210.56 46.5,210.5 Z"/></g>
<g><path style="opacity:1" fill="#9b65e9" d="M 65.5,207.5 C 67.1439,207.286 68.6439,207.62 70,208.5C 70.6667,210.833 70.6667,213.167 70,215.5C 68.6043,217.527 66.9376,217.86 65,216.5C 64.2642,213.408 64.4309,210.408 65.5,207.5 Z"/></g>
<g><path style="opacity:1" fill="#9860e9" d="M 82.5,207.5 C 84.1439,207.286 85.6439,207.62 87,208.5C 87.7772,211.429 87.6105,214.263 86.5,217C 85.2161,217.684 84.0495,217.517 83,216.5C 82.502,213.518 82.3354,210.518 82.5,207.5 Z"/></g>
<g><path style="opacity:1" fill="#dbccf6" d="M 81.5,204.5 C 80.5,204.5 79.5,204.5 78.5,204.5C 78.5,211.833 78.5,219.167 78.5,226.5C 79.5,226.5 80.5,226.5 81.5,226.5C 81.1924,224.076 81.5258,221.743 82.5,219.5C 83.1067,219.624 83.44,219.957 83.5,220.5C 82.5318,222.607 82.1984,224.941 82.5,227.5C 80.8333,227.5 79.1667,227.5 77.5,227.5C 77.5,219.5 77.5,211.5 77.5,203.5C 79.099,203.232 80.4324,203.566 81.5,204.5 Z"/></g>
<g><path style="opacity:1" fill="#b795ee" d="M 64.5,204.5 C 63.1667,204.5 61.8333,204.5 60.5,204.5C 60.5,211.833 60.5,219.167 60.5,226.5C 59.8333,224.5 59.1667,222.5 58.5,220.5C 58.5,220.167 58.5,219.833 58.5,219.5C 59.4881,214.36 59.8214,209.026 59.5,203.5C 61.4147,203.216 63.0813,203.549 64.5,204.5 Z"/></g>
</svg>
